<svg width="53" height="47" viewBox="0 0 53 47" fill="none" xmlns="http://www.w3.org/2000/svg">
<path d="M50.9297 35.9219C49.7863 35.9219 48.8594 36.8487 48.8594 37.9922C48.8594 40.2753 47.0019 42.1328 44.7188 42.1328H28.9155L24.1554 35.9575L39.1804 16.8466L49.3317 28.957C49.3519 28.9815 49.3726 29.0055 49.3938 29.0289C49.3946 29.0297 49.3953 29.0305 49.396 29.0314C49.3985 29.0341 49.4011 29.0369 49.4037 29.0397C49.5922 29.2456 49.8137 29.4051 50.0533 29.5168C50.2995 29.632 50.5721 29.7001 50.8595 29.7096C50.8648 29.7098 50.8701 29.71 50.8753 29.7101C50.8763 29.7101 50.8772 29.7101 50.878 29.7102C51.026 29.7139 51.1744 29.7019 51.3207 29.674L51.3262 29.6729C51.3326 29.6717 51.339 29.6705 51.3455 29.6691C51.3481 29.6686 51.3508 29.668 51.3535 29.6675C51.3591 29.6663 51.3647 29.6652 51.3703 29.6639C51.3734 29.6632 51.3765 29.6626 51.3796 29.6619C51.3846 29.6607 51.3897 29.6596 51.3948 29.6585C51.3984 29.6576 51.402 29.6568 51.4055 29.6559C51.4101 29.6548 51.4147 29.6537 51.4192 29.6527C51.4231 29.6517 51.427 29.6507 51.4309 29.6498C51.4352 29.6487 51.4395 29.6476 51.4437 29.6465C51.4477 29.6455 51.4515 29.6445 51.4554 29.6434C51.4598 29.6423 51.464 29.6412 51.4684 29.64C51.4723 29.639 51.4762 29.6379 51.4802 29.6368L51.4923 29.6335C51.4965 29.6323 51.5008 29.631 51.505 29.6299C51.5092 29.6287 51.5132 29.6275 51.5172 29.6264C51.5206 29.6254 51.5239 29.6244 51.5273 29.6234C51.5324 29.6218 51.5375 29.6203 51.5425 29.6187C51.5453 29.6179 51.5481 29.6169 51.5508 29.6161C51.556 29.6146 51.561 29.6129 51.5662 29.6112C51.5693 29.6102 51.5724 29.6092 51.5755 29.6081C51.5806 29.6065 51.5858 29.6047 51.5908 29.6031C51.5932 29.6022 51.5956 29.6014 51.598 29.6007C51.6037 29.5987 51.6095 29.5968 51.6152 29.5948C51.6173 29.5941 51.6195 29.5932 51.6217 29.5925C51.6276 29.5904 51.6334 29.5884 51.6392 29.5862C51.641 29.5855 51.6429 29.5849 51.6448 29.5841C51.6512 29.5817 51.6575 29.5795 51.6638 29.577L51.667 29.5757C51.6741 29.5731 51.6811 29.5704 51.6881 29.5676C51.6886 29.5675 51.689 29.5673 51.6894 29.567C51.6969 29.564 51.7045 29.561 51.7121 29.5579C51.8041 29.5204 51.8941 29.4757 51.9815 29.4241C51.9828 29.4234 51.984 29.4226 51.9852 29.4219C51.9911 29.4184 51.997 29.4149 52.0029 29.4114C52.1145 29.3436 52.2192 29.2655 52.3157 29.1784C52.3174 29.1769 52.3191 29.1753 52.3208 29.1738C52.3224 29.1723 52.3239 29.1709 52.3255 29.1695C52.533 28.9802 52.6938 28.7575 52.8061 28.5163C52.9215 28.2692 52.9897 27.9956 52.9988 27.707C52.9989 27.7032 52.999 27.6996 52.9991 27.6959C52.9991 27.6935 52.9992 27.6911 52.9992 27.6889C52.9993 27.6818 52.9995 27.6747 52.9996 27.6676C52.9996 27.6674 52.9996 27.6673 52.9996 27.6671C52.9997 27.6563 52.9997 27.6453 52.9997 27.6343V9.00781C52.9997 4.44153 49.2847 0.726562 44.7184 0.726562H8.28125C3.71497 0.726562 0 4.44143 0 9.00781V37.9922C0 42.5585 3.71497 46.2734 8.28125 46.2734H27.8844C27.8893 46.2734 27.8941 46.2735 27.899 46.2735C27.9055 46.2735 27.912 46.2735 27.9185 46.2734H44.7188C49.285 46.2734 53 42.5585 53 37.9922C53 36.8486 52.0731 35.9219 50.9297 35.9219ZM8.28125 42.1328C5.99811 42.1328 4.14062 40.2753 4.14062 37.9922V9.00781C4.14062 6.72467 5.99811 4.86719 8.28125 4.86719H44.7188C47.0019 4.86719 48.8594 6.72467 48.8594 9.00781V21.948L40.7155 12.2325C40.3149 11.7545 39.7214 11.483 39.0965 11.4924C38.4729 11.5021 37.8868 11.7926 37.5014 12.2828L21.5478 32.5746L16.1319 25.5485C15.74 25.0399 15.1342 24.7421 14.4922 24.7421H14.4912C13.8487 24.7424 13.2429 25.0409 12.8512 25.5501L8.29491 31.4732C7.59784 32.3795 7.76729 33.6793 8.67357 34.3765C9.58006 35.0737 10.8798 34.9041 11.5769 33.9978L14.4938 30.2057L23.6877 42.1328H8.28125Z" fill="black"/>
</svg>
